P2 8 8 3
2 3 3 3 3 3 2 0
3 0 1 2 2 3 3 0
3 1 2 2 3 3 2 0
3 2 2 3 3 2 2 0
3 2 3 3 2 2 1 0
3 3 3 2 2 1 1 0
3 3 2 2 1 1 0 0
0 0 0 0 0 0 0 0